<!-- Generated by IcoMoon.io -->
<svg version="1.1" xmlns="http://www.w3.org/2000/svg" width="32" height="32" viewBox="0 0 32 32">
<path d="M32 16c0 8.837-7.163 16-16 16s-16-7.163-16-16c0-8.837 7.163-16 16-16s16 7.163 16 16z"></path>
<path fill="#fff" stroke="rgba(0, 0, 0, 0)" stroke-linejoin="miter" stroke-linecap="butt" stroke-miterlimit="4" stroke-width="1.28" d="M15.603 28.381v-4.549h-8.586c-0.805-0.001-1.457-0.654-1.457-1.459 0 0 0 0 0 0v0-13.233c0.001-0.805 0.652-1.457 1.456-1.459h17.567c0.805 0.002 1.456 0.655 1.457 1.459v13.233c0 0 0 0 0 0 0 0.805-0.652 1.458-1.456 1.459h-1.971l-7.007 4.548zM20.483 12.8c-1.414 0-2.56 1.146-2.56 2.56v0c0 1.414 1.146 2.56 2.56 2.56v0c1.414 0 2.56-1.146 2.56-2.56v0c0-1.414-1.146-2.56-2.56-2.56-0 0-0.001 0-0.001 0h0zM11.523 12.8c-1.414 0-2.56 1.146-2.56 2.56v0c0 1.414 1.146 2.56 2.56 2.56v0c1.414 0 2.56-1.146 2.56-2.56v0c0-1.414-1.146-2.56-2.56-2.56-0.001 0-0.002 0-0.003 0h0z"></path>
</svg>
