<!-- Generated by IcoMoon.io -->
<svg version="1.1" xmlns="http://www.w3.org/2000/svg" width="32" height="32" viewBox="0 0 32 32">
<path d="M32 16.48c-0.16-1.76-0.96-3.36-2.24-4.48v0c-1.44-1.28-3.2-2.080-5.12-2.24-0.48-1.44-1.28-2.88-2.4-3.84-0.8-0.8-1.92-1.44-3.040-1.92s-2.24-0.64-3.52-0.64h-6.4c-1.28 0-2.4 0.16-3.52 0.64s-2.24 1.12-3.040 1.92c-0.8 0.8-1.6 1.76-2.080 2.88-0.48 0.96-0.64 2.24-0.64 3.36 0 1.44 0.32 2.88 1.12 4.16 0.64 1.28 1.76 2.4 3.040 3.2l-0.8 3.84c0 0.48 0 0.96 0.32 1.28 0.16 0.32 0.48 0.64 0.8 0.8s0.8 0.32 1.12 0.32c0.48 0 0.8 0 1.28-0.48l5.44-3.68c0.32 0.48 0.64 0.8 0.96 1.12 0.8 0.8 1.6 1.28 2.56 1.76 0.96 0.32 2.080 0.64 3.040 0.64h2.080l5.12 3.52c0.32 0.16 0.64 0.32 1.12 0.32h0.16c0.32 0 0.8 0 1.12-0.32 0.32-0.16 0.64-0.48 0.8-0.8s0.32-0.64 0.32-0.96v0c0-0.16-0.64-3.2-0.64-3.2 0.8-0.64 1.6-1.28 2.080-2.080 0.96-1.44 1.44-3.2 1.12-4.96zM11.36 14.4c-0.32 0.96-0.64 1.92-0.64 2.88 0 0.48 0 0.8 0 1.28l-4 2.72 0.8-3.68-1.12-0.48c-1.44-0.64-2.4-1.76-2.88-3.2s-0.48-2.88 0-4.32c0.32-0.64 0.8-1.28 1.28-1.92 0.48-0.48 1.28-0.96 1.92-1.28 0.8-0.32 1.44-0.48 2.24-0.48h6.56c1.6 0 3.040 0.64 4.16 1.6 0.48 0.48 0.96 1.12 1.12 1.6h-2.4c-1.12 0-2.080 0.16-3.040 0.64-0.96 0.32-1.76 0.96-2.56 1.76s-1.28 1.6-1.76 2.56zM15.68 17.92h-1.6c0-0.16 0-0.48 0-0.64 0-1.12 0.48-2.24 1.44-3.040s2.080-1.28 3.36-1.28h2.88c0 1.28-0.64 2.56-1.76 3.52-0.64 0.48-1.28 0.96-1.92 1.28-0.8 0.32-1.44 0.48-2.24 0.32zM28 19.68c-0.48 0.64-1.12 1.28-1.92 1.6l-1.12 0.48 0.48 2.56-3.68-2.56h-3.040c-0.96 0-1.92-0.32-2.72-0.8 2.24 0 4.48-0.96 6.080-2.56 1.6-1.44 2.56-3.52 2.56-5.6 1.12 0 2.080 0.64 2.88 1.44s1.12 1.92 1.12 3.040c0 0.8-0.32 1.6-0.64 2.4z"></path>
</svg>
