<!-- Generated by IcoMoon.io -->
<svg version="1.1" xmlns="http://www.w3.org/2000/svg" width="32" height="32" viewBox="0 0 32 32">
<path d="M28.8 4.8h-25.6c-3.2 0-3.2 1.6-3.2 3.2v17.6c0 1.12 0 3.2 3.2 3.2h25.6c3.2 0 3.2-2.080 3.2-3.2v-17.6c0-1.6 0-3.2-3.2-3.2zM28.8 25.6h-25.6v-17.6h25.6v17.6zM4.8 20.64c-0.48 0.48-0.48 1.44 0 1.92s1.44 0.48 2.080 0l4.16-4c0.16-0.16 0.16-0.32 0.32-0.48l3.52 3.36c0.32 0.32 0.64 0.48 1.12 0.32 0.32 0 0.8-0.16 1.12-0.32l3.36-3.2c0 0.16 0.16 0.32 0.16 0.32l4.16 4c0.48 0.48 1.44 0.48 2.080 0 0.48-0.48 0.48-1.44 0-1.92l-4.16-4c-0.16-0.16-0.16-0.16-0.32-0.16l4.32-4.16c0.48-0.48 0.48-1.44 0-1.92s-1.44-0.48-2.080 0l-8.64 8.16-8.8-8.32c-0.48-0.48-1.44-0.48-2.080 0-0.48 0.48-0.48 1.44 0 1.92l4.32 4.16c-0.16 0-0.32 0.16-0.48 0.32l-4.16 4z"></path>
</svg>
